<svg width="64" height="64" viewBox="0 0 64 64" fill="none" xmlns="http://www.w3.org/2000/svg">
  <path d="M18 20.5C23.5 16.5 40.5 16.5 46 20.5C49.2 25.4 51 30.8 51 36.5C46.6 40.4 41.8 43 36.5 44.5L34 39.5C35.8 38.9 37.5 38.1 39 37.1C38.6 36.8 38.2 36.5 37.8 36.2C34.4 37.7 29.6 37.7 26.2 36.2C25.8 36.5 25.4 36.8 25 37.1C26.5 38.1 28.2 38.9 30 39.5L27.5 44.5C22.2 43 17.4 40.4 13 36.5C13 30.8 14.8 25.4 18 20.5Z" stroke="#191410" stroke-width="4" stroke-linejoin="round"/>
  <circle cx="26" cy="30.5" r="3" fill="#191410"/>
  <circle cx="38" cy="30.5" r="3" fill="#191410"/>
</svg>
