<svg width="64" height="64" viewBox="0 0 64 64" fill="none" xmlns="http://www.w3.org/2000/svg">
  <path d="M37 13V36.5C37 43.4036 31.4036 49 24.5 49C17.5964 49 12 43.4036 12 36.5C12 29.5964 17.5964 24 24.5 24C26.7458 24 28.8533 24.5918 30.675 25.6289V33.847C29.2437 32.3952 27.2547 31.5 25.0568 31.5C20.6768 31.5 17.125 35.0518 17.125 39.4318C17.125 43.8118 20.6768 47.3636 25.0568 47.3636C29.4368 47.3636 32.9886 43.8118 32.9886 39.4318V13H37Z" fill="#191410"/>
  <path d="M37 13C38.2368 18.9611 42.8978 23.5924 49 24.7045V31.2784C45.7564 30.8648 42.7162 29.5048 40.125 27.3579V13H37Z" fill="#191410"/>
</svg>
